<svg id="Слой_1" data-name="Слой 1" xmlns="http://www.w3.org/2000/svg" viewBox="0 0 394.27 122.44"><defs><style>.cls-1{fill:#ea0f15;}</style></defs><title>logo-scroll-new-full</title><path d="M-152.82-333.65c1.59-2.53,3.5-4.05,6.66-4.05,2.92,0,5,1.44,5.72,3.89a7.15,7.15,0,0,1,6.66-3.89c3.35,0,6.42,1.83,6.42,6.27v14.28h-2.45v-13.62c0-3.12-1.6-4.75-4.63-4.75-3.62,0-5.57,2.45-5.57,6.11v12.26h-2.41v-13.43c0-3-1.17-4.94-4.4-4.94-4.09,0-5.84,3.12-5.84,7v11.36h-2.45v-20h2.3v3.51Z" transform="translate(294.57 438.93)"/><path d="M-112.82-316.48c-5.57,0-9.18-4.09-9.18-10.43s3.77-10.78,9.15-10.78c5.92,0,8.8,4.91,8.8,10.43v0.7h-15.45c0,4.2,1.95,8.09,6.77,8.09,3.19,0,5.33-1.79,6.11-5.25h2.37C-105.11-319.29-108.11-316.48-112.82-316.48Zm-0.11-19.19c-4.36,0-6.11,3.39-6.58,7.12h13C-106.78-333-109.19-335.67-112.93-335.67Z" transform="translate(294.57 438.93)"/><path d="M-81.27-317.15h-2.22v-3.93c-1.21,3-3.93,4.51-7.2,4.51-5.53,0-9-4.09-9-10.58s3.5-10.59,8.95-10.59c3.19,0,5.84,1.4,7.12,4.32v-11.44h2.37v27.71Zm-16-10c0,5.3,2.65,8.64,6.81,8.64s6.89-3.27,6.89-8.6c0-4.32-2-8.56-6.93-8.56C-94.62-335.71-97.27-332.37-97.27-327.19Z" transform="translate(294.57 438.93)"/><path d="M-72.37-341h-2.45v-4h2.45v4Zm0,23.82h-2.45v-20h2.45v20Z" transform="translate(294.57 438.93)"/><path d="M-48.45-317.26a5.49,5.49,0,0,1-1.95.31c-2.38,0-2.61-1.83-2.61-3.66a8.38,8.38,0,0,1-7.55,4c-4.09,0-6.54-2.1-6.54-5.61,0-3.66,2.49-5.68,7.43-6.19,3.15-.31,4.86-0.39,5.84-1.05a2,2,0,0,0,.7-1.91c0-3.31-2-4.32-5.22-4.32-3.38,0-5.14,1.48-5.45,4.71h-2.34c0.19-4.28,3.12-6.73,8.06-6.73,4.52,0,7.36,2,7.36,5.76V-321c0,1.21,0,2,1.32,2a2.9,2.9,0,0,0,.93-0.12v1.87Zm-10.12-9.38c-2.53.35-6,.93-6,4.21,0,2.34,1.79,3.81,4.59,3.81,3.66,0,6.81-2.34,6.81-6.15V-328C-53.91-327.19-55.89-327-58.57-326.65Z" transform="translate(294.57 438.93)"/><path d="M-155.12-360l3.9-5.86a41.87,41.87,0,0,0,22.42,6.38q7.33,0,10.26-2t2.93-4.55a5.68,5.68,0,0,0-2-4.41q-2-1.8-7.24-3.23L-140-378a26.94,26.94,0,0,1-10.19-5.31,11.75,11.75,0,0,1-3.95-9.31q0-10.28,13.51-13.47a52.64,52.64,0,0,1,12.07-1.14,43.92,43.92,0,0,1,14,2.19,39.75,39.75,0,0,1,10.69,5.14l-3.9,5.86a50.5,50.5,0,0,0-9.07-4.45,31.61,31.61,0,0,0-11.33-1.93q-6.26,0-8.78,1.66a4.78,4.78,0,0,0-2.52,4q0,4.93,8.77,7.44l15.13,4.41Q-101-378.63-101-368.25q0,15.61-27.8,15.61a50.57,50.57,0,0,1-21.42-4.52A30.33,30.33,0,0,1-155.12-360Z" transform="translate(294.57 438.93)"/><path d="M-98.58-379.92q0-12.95,8.28-20.28,8-7,21.47-7A36.29,36.29,0,0,1-51.26-403a23.48,23.48,0,0,1,4.38,3l-3.9,5.86q-8.52-6.37-17.09-6.38-11.32,0-14.85,11.14A31.29,31.29,0,0,0-84-379.92q0,15.67,10.14,19.33a20.2,20.2,0,0,0,7,1.14q8.66,0,17-6.38l3.9,5.86q-5.57,5-15.71,6.81a50.33,50.33,0,0,1-8.12.53,35.73,35.73,0,0,1-10.73-1.81,27,27,0,0,1-9.71-5.29Q-98.58-366.92-98.58-379.92Z" transform="translate(294.57 438.93)"/><path d="M-41.57-354.59v-29.75q0-10,6.29-15.45t18.09-5.5H-2.58v6.81H-14.25q-6.62,0-10.14,3.57t-3.52,10.57v29.75H-41.57Z" transform="translate(294.57 438.93)"/><path d="M-2.12-379.92q0-12.95,8.28-20.28,8-7,21.42-7a38.3,38.3,0,0,1,12.06,1.81A26.65,26.65,0,0,1,49-400.2q8.28,7.33,8.28,20.28T49-359.74q-8,7.1-21.42,7.1t-21.47-7.1Q-2.13-367-2.12-379.92Zm14.61,0q0,10.62,4.53,16.09A13,13,0,0,0,27.63-359q10.43,0,13.85-11.33a32.88,32.88,0,0,0,1.23-9.62q0-10.71-4.47-16.19a13,13,0,0,0-10.61-4.81q-10.38,0-13.9,11.33A33.06,33.06,0,0,0,12.49-379.92Z" transform="translate(294.57 438.93)"/><path d="M63.64-354.59v-84.33H77.3v84.33H63.64Z" transform="translate(294.57 438.93)"/><path d="M86-354.59v-84.33H99.7v84.33H86Z" transform="translate(294.57 438.93)"/><path class="cls-1" d="M-234.75-437.51a59.88,59.88,0,0,0-59.82,59.79,59.88,59.88,0,0,0,59.82,59.82,59.88,59.88,0,0,0,59.82-59.82A59.88,59.88,0,0,0-234.75-437.51Zm29,106.7a19.7,19.7,0,0,1-4.34,2.09,72,72,0,0,0-10.71-3.74l-35.72-10.49q-14.77-4.4-24.13-12.56t-9.34-22a28.89,28.89,0,0,1,3-13.36,26.41,26.41,0,0,0,6.32,8.2q9.36,8.18,24.13,12.56l35.72,10.49q12.3,3.37,17.14,7.66a13.46,13.46,0,0,1,4.84,10.43Q-198.78-335.42-205.71-330.8Zm-8.43-55L-250-396.28q-20.78-5.95-20.76-17.62,0-5.62,6-9.54a21.43,21.43,0,0,1,7.19-2.72,63.31,63.31,0,0,0,7.61,2.67L-214.14-413q34.62,10.09,34.59,34.66a31.89,31.89,0,0,1-3,14Q-189.76-378.71-214.14-385.83Z" transform="translate(294.57 438.93)"/></svg>