<?xml version="1.0" encoding="utf-8"?>
<!-- Generator: Adobe Illustrator 18.0.0, SVG Export Plug-In . SVG Version: 6.00 Build 0)  -->
<!DOCTYPE svg PUBLIC "-//W3C//DTD SVG 1.1//EN" "http://www.w3.org/Graphics/SVG/1.1/DTD/svg11.dtd">
<svg version="1.1" id="Слой_1" xmlns="http://www.w3.org/2000/svg" xmlns:xlink="http://www.w3.org/1999/xlink" x="0px" y="0px"
	 viewBox="0 0 399 154.1" enable-background="new 0 0 399 154.1" xml:space="preserve">
<path fill="#E2982F" d="M394.8,87.8c5.6-6.1,5.6-15.4,0-21.5L339.2,5.2c-3-3.3-7.3-5.2-11.8-5.2H16C11.8,0,7.7,1.7,4.7,4.7
	C1.7,7.7,0,11.8,0,16l0,122.1c0,4.4,1.8,8.4,4.7,11.3c2.9,2.9,6.9,4.7,11.3,4.7h311.4c4.5,0,8.8-1.9,11.8-5.2L394.8,87.8z M344,96
	c-10.5,0-19-8.5-19-19c0-10.5,8.5-19,19-19c10.5,0,19,8.5,19,19C363,87.5,354.5,96,344,96"/>
<rect fill="none" width="399" height="154.1"/>
</svg>
